<svg xmlns="http://www.w3.org/2000/svg" xmlns:xlink="http://www.w3.org/1999/xlink" version="1.1" x="0px" y="0px" viewBox="0 0 100 123.75" style="enable-background:new 0 0 100 99;" xml:space="preserve"><g><rect x="12.7" y="17" width="34" height="4"/><rect x="12.7" y="25.4" width="34" height="4"/><rect x="12.7" y="33.7" width="34" height="4"/><rect x="30.3" y="59.7" width="4" height="33.3"/><rect x="47.7" y="65.7" width="4" height="33.3"/><polygon points="100,69.4 98,66 83,75 83,58 79.3,58 79.3,75 64.3,66 62.3,69.4 77.3,78.7 62.3,87.7 64.3,91 79.3,82 79.3,99    83,99 83,82 98,91 100,87.7 85,78.7  "/><path d="M70.7,17.4c-2.7,0-5.3,1-7,3c-4,4-4,10.3,0,14c2,2,4.7,3,7,3c2.7,0,5.3-1,7-3c4-4,4-10.3,0-14C76,18.4,73.3,17.4,70.7,17.4   z M75,31.7c-1.3,1-2.7,1.7-4.3,1.7c-1.7,0-3.3-0.7-4.3-1.7c-1-1-1.7-2.7-1.7-4.3c0-1.6,0.7-3,1.7-4.3c1.3-1,2.7-1.7,4.3-1.7   c1.7,0,3.3,0.7,4.3,1.7s1.7,2.7,1.7,4.3C77,29,76.3,30.4,75,31.7z"/><path d="M98,54.7c1,0,2-1,2-2v-41C100,5.4,94.7,0,88.3,0H11.6C5.3,0.4,0,5.4,0,11.7v41c0,1,1,2,2,2h11v33h3.7v-33   C16.7,54.7,98,54.7,98,54.7z M4,11.7C4,7.4,7.3,4,11.7,4h76.7c4.3,0,7.7,3.3,7.7,7.7v39h-92L4,11.7L4,11.7z"/></g></svg>