<svg xmlns="http://www.w3.org/2000/svg" xmlns:xlink="http://www.w3.org/1999/xlink" version="1.1" x="0px" y="0px" viewBox="0 0 100 125" enable-background="new 0 0 100 100" xml:space="preserve"><path d="M53.8,67.5c1.4,0,2.5-1.1,2.5-2.5V49.1c9.4-2.7,16.3-11.4,16.3-21.6C72.5,15.1,62.4,5,50,5S27.5,15.1,27.5,27.5  c0,10.2,6.9,18.9,16.3,21.6V65c0,1.4,1.1,2.5,2.5,2.5h1.3v16.3l-9.1-3.6c-1.3-0.5-2.7,0.1-3.3,1.4c-0.5,1.3,0.1,2.7,1.4,3.3l6.7,2.7  l-6.7,2.7c-1.3,0.5-1.9,2-1.4,3.3c0.4,1,1.3,1.6,2.3,1.6c0.3,0,0.6-0.1,0.9-0.2L50,90.2l11.6,4.6c0.3,0.1,0.6,0.2,0.9,0.2  c1,0,1.9-0.6,2.3-1.6c0.5-1.3-0.1-2.7-1.4-3.3l-6.7-2.7l6.7-2.7c1.3-0.5,1.9-2,1.4-3.3c-0.5-1.3-2-1.9-3.3-1.4l-9.1,3.6V67.5H53.8z   M51.3,62.5h-2.5V50h2.5V62.5z M50,45c-9.6,0-17.5-7.9-17.5-17.5S40.4,10,50,10s17.5,7.9,17.5,17.5S59.6,45,50,45z"/><path d="M58.4,27.5c1.7-1,2.9-2.7,3.5-4.8c1-3.7-0.4-7.3-3.7-9.2c0,0-0.1,0-0.1-0.1L58,13.4c-1.3-0.7-2.6-1.1-4-1.1  c-2.9,0-5.6,1.6-7.1,4.2c-0.7,1.2-1,2.4-1.1,3.7c-1.1-0.6-2.4-0.9-3.7-0.9c-4,0-8.2,3-8.3,8.1c0,0,0,0,0,0v0c0,0,0,0,0,0l0,0.2  c0.1,5.1,4.3,8.1,8.3,8.1c1.4,0,2.6-0.3,3.8-0.9c0.1,1.3,0.4,2.5,1.1,3.7c1.5,2.6,4.2,4.2,7.2,4.2c0,0,0,0,0,0c1.4,0,2.7-0.4,4-1.1  c0,0,0.1,0,0.1,0l0.1-0.1c3.3-1.9,4.7-5.5,3.7-9.2C61.4,30.2,60.1,28.6,58.4,27.5z M46.6,30.8c-1.1,1.5-2.7,2.4-4.6,2.4  c-2.8,0-5.7-2-5.8-5.6l0-0.2c0-3.7,3-5.6,5.8-5.6c1.8,0,3.5,0.9,4.5,2.4c-0.8,0.9-1.4,2-1.4,3.3C45.2,28.8,45.7,30,46.6,30.8z   M49,17.7c1.1-1.8,3-3,5-3c1,0,1.9,0.3,2.8,0.8l0.1,0.1c0,0,0,0,0,0c2.8,1.6,3.1,4.5,2.6,6.4c-0.5,1.8-2.1,3.9-4.9,4.1  c-0.6-2-2.4-3.5-4.6-3.5c-0.4,0-0.8,0.1-1.2,0.2C48,21.2,48.1,19.4,49,17.7z M47.7,27.5c0-1.3,1-2.3,2.3-2.3s2.3,1,2.3,2.3  s-1,2.3-2.3,2.3S47.7,28.8,47.7,27.5z M56.9,39.4l-0.1,0.1c0,0,0,0,0,0c-0.9,0.5-1.8,0.8-2.8,0.8h0c-2,0-3.9-1.2-5-3  c-0.9-1.6-1-3.4-0.2-5.1c0.4,0.1,0.8,0.2,1.2,0.2c2.2,0,4-1.5,4.6-3.5c2.8,0.3,4.4,2.3,4.9,4.2C60,34.9,59.7,37.7,56.9,39.4z"/></svg>